<mxfile host="app.diagrams.net" agent="Mozilla/5.0 (Windows NT 10.0; Win64; x64) AppleWebKit/537.36 (KHTML, like Gecko) Chrome/136.0.0.0 Safari/537.36" version="27.0.6">
  <diagram name="第 1 页" id="goHH-cacQclihP8tj52F">
    <mxGraphModel dx="1011" dy="680" grid="1" gridSize="10" guides="1" tooltips="1" connect="1" arrows="1" fold="1" page="1" pageScale="1" pageWidth="827" pageHeight="1169" math="0" shadow="0">
      <root>
        <mxCell id="0" />
        <mxCell id="1" parent="0" />
        <mxCell id="dSSBSxWVxvR64Uiz2ZRZ-1" value="&lt;div&gt;&lt;font style=&quot;color: rgb(51, 0, 0);&quot;&gt;返回地址&lt;br&gt;（&lt;span style=&quot;font-family: system-ui, -apple-system, BlinkMacSystemFont, &amp;quot;Segoe UI&amp;quot;, Roboto, Oxygen, Ubuntu, Cantarell, &amp;quot;Fira Sans&amp;quot;, &amp;quot;Droid Sans&amp;quot;, &amp;quot;Helvetica Neue&amp;quot;, Arial, sans-serif; orphans: 4; text-align: left; white-space-collapse: preserve; background-color: rgb(255, 255, 255);&quot;&gt;Return Addr）&lt;/span&gt;&lt;/font&gt;&lt;/div&gt;" style="rounded=0;whiteSpace=wrap;html=1;" parent="1" vertex="1">
          <mxGeometry x="326" y="263" width="120" height="60" as="geometry" />
        </mxCell>
        <mxCell id="dSSBSxWVxvR64Uiz2ZRZ-9" value="上一个帧指针（Saved EBP）" style="rounded=0;whiteSpace=wrap;html=1;" parent="1" vertex="1">
          <mxGeometry x="326" y="323" width="120" height="60" as="geometry" />
        </mxCell>
        <mxCell id="dSSBSxWVxvR64Uiz2ZRZ-12" value="" style="endArrow=classic;html=1;rounded=0;exitX=0.557;exitY=-0.05;exitDx=0;exitDy=0;exitPerimeter=0;" parent="1" edge="1">
          <mxGeometry width="50" height="50" relative="1" as="geometry">
            <mxPoint x="309.99" y="553" as="sourcePoint" />
            <mxPoint x="310" y="268" as="targetPoint" />
          </mxGeometry>
        </mxCell>
        <mxCell id="dSSBSxWVxvR64Uiz2ZRZ-13" value="高地址&lt;br&gt;（栈顶）" style="text;html=1;align=center;verticalAlign=middle;resizable=0;points=[];autosize=1;strokeColor=none;fillColor=none;" parent="1" vertex="1">
          <mxGeometry x="275" y="230" width="70" height="40" as="geometry" />
        </mxCell>
        <mxCell id="dSSBSxWVxvR64Uiz2ZRZ-14" value="低地址&lt;br&gt;（栈底）" style="text;html=1;align=center;verticalAlign=middle;resizable=0;points=[];autosize=1;strokeColor=none;fillColor=none;" parent="1" vertex="1">
          <mxGeometry x="271" y="552" width="70" height="40" as="geometry" />
        </mxCell>
        <mxCell id="dSSBSxWVxvR64Uiz2ZRZ-40" value="" style="endArrow=classic;html=1;rounded=0;entryX=1;entryY=0.667;entryDx=0;entryDy=0;entryPerimeter=0;exitX=-0.018;exitY=0.426;exitDx=0;exitDy=0;exitPerimeter=0;" parent="1" edge="1">
          <mxGeometry width="50" height="50" relative="1" as="geometry">
            <mxPoint x="468.7399999999998" y="291" as="sourcePoint" />
            <mxPoint x="447" y="291.2399999999999" as="targetPoint" />
          </mxGeometry>
        </mxCell>
        <mxCell id="dSSBSxWVxvR64Uiz2ZRZ-41" value="" style="endArrow=classic;html=1;rounded=0;entryX=1;entryY=0.667;entryDx=0;entryDy=0;entryPerimeter=0;exitX=-0.018;exitY=0.426;exitDx=0;exitDy=0;exitPerimeter=0;" parent="1" edge="1">
          <mxGeometry width="50" height="50" relative="1" as="geometry">
            <mxPoint x="468.7399999999998" y="355" as="sourcePoint" />
            <mxPoint x="447" y="355.2399999999999" as="targetPoint" />
          </mxGeometry>
        </mxCell>
        <mxCell id="AIi-UTc1Uuxe0sITR6zi-1" value="函数参数（Arguments）&amp;nbsp; &amp;nbsp;" style="rounded=0;whiteSpace=wrap;html=1;" vertex="1" parent="1">
          <mxGeometry x="326" y="383" width="120" height="60" as="geometry" />
        </mxCell>
        <mxCell id="AIi-UTc1Uuxe0sITR6zi-2" value="局部变量&lt;br&gt;（Local Vars）&amp;nbsp;" style="rounded=0;whiteSpace=wrap;html=1;" vertex="1" parent="1">
          <mxGeometry x="326" y="443" width="120" height="60" as="geometry" />
        </mxCell>
        <mxCell id="AIi-UTc1Uuxe0sITR6zi-4" value="" style="endArrow=classic;html=1;rounded=0;entryX=1;entryY=0.667;entryDx=0;entryDy=0;entryPerimeter=0;exitX=-0.018;exitY=0.426;exitDx=0;exitDy=0;exitPerimeter=0;" edge="1" parent="1">
          <mxGeometry width="50" height="50" relative="1" as="geometry">
            <mxPoint x="467.7399999999998" y="415" as="sourcePoint" />
            <mxPoint x="446" y="415.2399999999999" as="targetPoint" />
          </mxGeometry>
        </mxCell>
        <mxCell id="AIi-UTc1Uuxe0sITR6zi-6" value="" style="endArrow=classic;html=1;rounded=0;entryX=1;entryY=0.667;entryDx=0;entryDy=0;entryPerimeter=0;exitX=-0.018;exitY=0.426;exitDx=0;exitDy=0;exitPerimeter=0;" edge="1" parent="1">
          <mxGeometry width="50" height="50" relative="1" as="geometry">
            <mxPoint x="467.7399999999998" y="473" as="sourcePoint" />
            <mxPoint x="446" y="473.2399999999999" as="targetPoint" />
          </mxGeometry>
        </mxCell>
        <mxCell id="AIi-UTc1Uuxe0sITR6zi-7" value="函数执行完要跳回哪" style="text;html=1;align=center;verticalAlign=middle;resizable=0;points=[];autosize=1;strokeColor=none;fillColor=none;fontSize=16;" vertex="1" parent="1">
          <mxGeometry x="457" y="276" width="170" height="30" as="geometry" />
        </mxCell>
        <mxCell id="AIi-UTc1Uuxe0sITR6zi-8" value="上一层函数的栈帧位置" style="text;whiteSpace=wrap;html=1;" vertex="1" parent="1">
          <mxGeometry x="469" y="342" width="150" height="40" as="geometry" />
        </mxCell>
        <mxCell id="AIi-UTc1Uuxe0sITR6zi-9" value="函数内部声明的变量" style="text;whiteSpace=wrap;html=1;" vertex="1" parent="1">
          <mxGeometry x="470" y="459" width="140" height="40" as="geometry" />
        </mxCell>
        <mxCell id="AIi-UTc1Uuxe0sITR6zi-10" value="&lt;font style=&quot;font-size: 12px;&quot;&gt;（C语言中典型的栈帧结构示意图）&lt;/font&gt;" style="text;html=1;align=center;verticalAlign=middle;resizable=0;points=[];autosize=1;strokeColor=none;fillColor=none;fontSize=16;" vertex="1" parent="1">
          <mxGeometry x="286" y="582" width="210" height="30" as="geometry" />
        </mxCell>
        <mxCell id="AIi-UTc1Uuxe0sITR6zi-12" value="临时保存区 / 对齐区&lt;br&gt;（Padding / Temp）" style="rounded=0;whiteSpace=wrap;html=1;" vertex="1" parent="1">
          <mxGeometry x="326" y="503" width="120" height="60" as="geometry" />
        </mxCell>
      </root>
    </mxGraphModel>
  </diagram>
</mxfile>
